<mxfile host="app.diagrams.net" modified="2021-04-09T13:41:44.973Z" agent="5.0 (Windows NT 10.0; Win64; x64) AppleWebKit/537.36 (KHTML, like Gecko) Chrome/89.0.4389.114 Safari/537.36" etag="2C4pQK6YXPoxB-0_CMfy" version="14.5.8" type="github">
  <diagram id="yZIHSuRr316w4IqbBefV" name="Page-1">
    <mxGraphModel dx="938" dy="536" grid="1" gridSize="10" guides="1" tooltips="1" connect="1" arrows="1" fold="1" page="1" pageScale="1" pageWidth="850" pageHeight="1100" math="0" shadow="0">
      <root>
        <mxCell id="0" />
        <mxCell id="1" parent="0" />
        <mxCell id="0nwCaB0LVHe2-dGo3pXc-1" value="" style="rounded=0;whiteSpace=wrap;html=1;fillColor=#fff2cc;strokeColor=none;" vertex="1" parent="1">
          <mxGeometry x="300" y="180" width="120" height="80" as="geometry" />
        </mxCell>
        <mxCell id="0nwCaB0LVHe2-dGo3pXc-2" value="" style="ellipse;whiteSpace=wrap;html=1;aspect=fixed;fillColor=#a20025;fontColor=#ffffff;strokeColor=none;" vertex="1" parent="1">
          <mxGeometry x="310" y="200" width="20" height="20" as="geometry" />
        </mxCell>
        <mxCell id="0nwCaB0LVHe2-dGo3pXc-3" value="" style="ellipse;whiteSpace=wrap;html=1;aspect=fixed;fillColor=#a20025;fontColor=#ffffff;strokeColor=none;" vertex="1" parent="1">
          <mxGeometry x="390" y="220" width="20" height="20" as="geometry" />
        </mxCell>
        <mxCell id="0nwCaB0LVHe2-dGo3pXc-4" value="" style="ellipse;whiteSpace=wrap;html=1;aspect=fixed;fillColor=#a20025;fontColor=#ffffff;strokeColor=none;" vertex="1" parent="1">
          <mxGeometry x="340" y="240" width="20" height="20" as="geometry" />
        </mxCell>
        <mxCell id="0nwCaB0LVHe2-dGo3pXc-5" value="" style="ellipse;whiteSpace=wrap;html=1;aspect=fixed;fillColor=#a20025;fontColor=#ffffff;strokeColor=none;" vertex="1" parent="1">
          <mxGeometry x="350" y="190" width="20" height="20" as="geometry" />
        </mxCell>
        <mxCell id="0nwCaB0LVHe2-dGo3pXc-6" value="" style="endArrow=none;html=1;exitX=1;exitY=0.5;exitDx=0;exitDy=0;entryX=0;entryY=0.5;entryDx=0;entryDy=0;" edge="1" parent="1" source="0nwCaB0LVHe2-dGo3pXc-2" target="0nwCaB0LVHe2-dGo3pXc-5">
          <mxGeometry width="50" height="50" relative="1" as="geometry">
            <mxPoint x="410" y="560" as="sourcePoint" />
            <mxPoint x="460" y="510" as="targetPoint" />
          </mxGeometry>
        </mxCell>
        <mxCell id="0nwCaB0LVHe2-dGo3pXc-7" value="" style="endArrow=none;html=1;exitX=1;exitY=0.5;exitDx=0;exitDy=0;entryX=0.5;entryY=0;entryDx=0;entryDy=0;" edge="1" parent="1" source="0nwCaB0LVHe2-dGo3pXc-5" target="0nwCaB0LVHe2-dGo3pXc-3">
          <mxGeometry width="50" height="50" relative="1" as="geometry">
            <mxPoint x="390" y="430" as="sourcePoint" />
            <mxPoint x="440" y="380" as="targetPoint" />
          </mxGeometry>
        </mxCell>
        <mxCell id="0nwCaB0LVHe2-dGo3pXc-8" value="" style="endArrow=none;html=1;exitX=0.5;exitY=1;exitDx=0;exitDy=0;entryX=0;entryY=0.5;entryDx=0;entryDy=0;" edge="1" parent="1" source="0nwCaB0LVHe2-dGo3pXc-2" target="0nwCaB0LVHe2-dGo3pXc-4">
          <mxGeometry width="50" height="50" relative="1" as="geometry">
            <mxPoint x="390" y="430" as="sourcePoint" />
            <mxPoint x="440" y="380" as="targetPoint" />
          </mxGeometry>
        </mxCell>
        <mxCell id="0nwCaB0LVHe2-dGo3pXc-9" value="" style="endArrow=none;html=1;exitX=0.5;exitY=1;exitDx=0;exitDy=0;entryX=0.5;entryY=0;entryDx=0;entryDy=0;" edge="1" parent="1" source="0nwCaB0LVHe2-dGo3pXc-5" target="0nwCaB0LVHe2-dGo3pXc-4">
          <mxGeometry width="50" height="50" relative="1" as="geometry">
            <mxPoint x="390" y="430" as="sourcePoint" />
            <mxPoint x="440" y="380" as="targetPoint" />
          </mxGeometry>
        </mxCell>
        <mxCell id="0nwCaB0LVHe2-dGo3pXc-10" value="" style="endArrow=none;html=1;exitX=1;exitY=0.5;exitDx=0;exitDy=0;entryX=0.5;entryY=1;entryDx=0;entryDy=0;" edge="1" parent="1" source="0nwCaB0LVHe2-dGo3pXc-4" target="0nwCaB0LVHe2-dGo3pXc-3">
          <mxGeometry width="50" height="50" relative="1" as="geometry">
            <mxPoint x="390" y="430" as="sourcePoint" />
            <mxPoint x="440" y="380" as="targetPoint" />
          </mxGeometry>
        </mxCell>
        <mxCell id="0nwCaB0LVHe2-dGo3pXc-11" value="" style="endArrow=none;html=1;entryX=0;entryY=0.5;entryDx=0;entryDy=0;exitX=1;exitY=1;exitDx=0;exitDy=0;" edge="1" parent="1" source="0nwCaB0LVHe2-dGo3pXc-2" target="0nwCaB0LVHe2-dGo3pXc-3">
          <mxGeometry width="50" height="50" relative="1" as="geometry">
            <mxPoint x="390" y="220" as="sourcePoint" />
            <mxPoint x="440" y="170" as="targetPoint" />
          </mxGeometry>
        </mxCell>
        <mxCell id="0nwCaB0LVHe2-dGo3pXc-12" value="&lt;font style=&quot;font-size: 10px&quot;&gt;Controller Farm&lt;/font&gt;" style="text;html=1;strokeColor=none;fillColor=none;align=center;verticalAlign=middle;whiteSpace=wrap;rounded=0;" vertex="1" parent="1">
          <mxGeometry x="300" y="160" width="90" height="20" as="geometry" />
        </mxCell>
        <mxCell id="0nwCaB0LVHe2-dGo3pXc-13" value="&lt;font style=&quot;font-size: 8px&quot;&gt;Falken Agent&lt;/font&gt;" style="rounded=0;whiteSpace=wrap;html=1;fillColor=#d80073;fontColor=#ffffff;strokeColor=none;" vertex="1" parent="1">
          <mxGeometry x="196" y="350" width="70" height="30" as="geometry" />
        </mxCell>
        <mxCell id="0nwCaB0LVHe2-dGo3pXc-14" value="&lt;font style=&quot;font-size: 8px&quot;&gt;service-A&lt;/font&gt;" style="rounded=0;whiteSpace=wrap;html=1;fillColor=#e1d5e7;strokeColor=none;" vertex="1" parent="1">
          <mxGeometry x="196" y="400" width="70" height="30" as="geometry" />
        </mxCell>
        <mxCell id="0nwCaB0LVHe2-dGo3pXc-15" value="" style="rounded=0;whiteSpace=wrap;html=1;fillColor=#d80073;fontColor=#ffffff;strokeColor=none;" vertex="1" parent="1">
          <mxGeometry x="246" y="400" width="20" height="10" as="geometry" />
        </mxCell>
        <mxCell id="0nwCaB0LVHe2-dGo3pXc-16" value="" style="endArrow=none;html=1;exitX=0.75;exitY=0;exitDx=0;exitDy=0;entryX=0.5;entryY=1;entryDx=0;entryDy=0;" edge="1" parent="1" source="0nwCaB0LVHe2-dGo3pXc-14" target="0nwCaB0LVHe2-dGo3pXc-13">
          <mxGeometry width="50" height="50" relative="1" as="geometry">
            <mxPoint x="416" y="350" as="sourcePoint" />
            <mxPoint x="466" y="300" as="targetPoint" />
          </mxGeometry>
        </mxCell>
        <mxCell id="0nwCaB0LVHe2-dGo3pXc-17" value="&lt;font style=&quot;font-size: 8px&quot;&gt;Falken Agent&lt;/font&gt;" style="rounded=0;whiteSpace=wrap;html=1;fillColor=#d80073;fontColor=#ffffff;strokeColor=none;" vertex="1" parent="1">
          <mxGeometry x="326" y="350" width="70" height="30" as="geometry" />
        </mxCell>
        <mxCell id="0nwCaB0LVHe2-dGo3pXc-18" value="&lt;font style=&quot;font-size: 8px&quot;&gt;service-B&lt;/font&gt;" style="rounded=0;whiteSpace=wrap;html=1;fillColor=#e1d5e7;strokeColor=none;" vertex="1" parent="1">
          <mxGeometry x="326" y="400" width="70" height="30" as="geometry" />
        </mxCell>
        <mxCell id="0nwCaB0LVHe2-dGo3pXc-19" value="" style="rounded=0;whiteSpace=wrap;html=1;fillColor=#d80073;fontColor=#ffffff;strokeColor=none;" vertex="1" parent="1">
          <mxGeometry x="376" y="400" width="20" height="10" as="geometry" />
        </mxCell>
        <mxCell id="0nwCaB0LVHe2-dGo3pXc-20" value="" style="endArrow=none;html=1;exitX=0.75;exitY=0;exitDx=0;exitDy=0;entryX=0.5;entryY=1;entryDx=0;entryDy=0;" edge="1" parent="1" source="0nwCaB0LVHe2-dGo3pXc-18" target="0nwCaB0LVHe2-dGo3pXc-17">
          <mxGeometry width="50" height="50" relative="1" as="geometry">
            <mxPoint x="546" y="350" as="sourcePoint" />
            <mxPoint x="596" y="300" as="targetPoint" />
          </mxGeometry>
        </mxCell>
        <mxCell id="0nwCaB0LVHe2-dGo3pXc-21" value="&lt;font style=&quot;font-size: 8px&quot;&gt;Falken Agent&lt;/font&gt;" style="rounded=0;whiteSpace=wrap;html=1;fillColor=#d80073;fontColor=#ffffff;strokeColor=none;" vertex="1" parent="1">
          <mxGeometry x="446" y="350" width="70" height="30" as="geometry" />
        </mxCell>
        <mxCell id="0nwCaB0LVHe2-dGo3pXc-22" value="&lt;font style=&quot;font-size: 8px&quot;&gt;service-C&lt;/font&gt;" style="rounded=0;whiteSpace=wrap;html=1;fillColor=#e1d5e7;strokeColor=none;" vertex="1" parent="1">
          <mxGeometry x="446" y="400" width="70" height="30" as="geometry" />
        </mxCell>
        <mxCell id="0nwCaB0LVHe2-dGo3pXc-23" value="" style="rounded=0;whiteSpace=wrap;html=1;fillColor=#d80073;fontColor=#ffffff;strokeColor=none;" vertex="1" parent="1">
          <mxGeometry x="496" y="400" width="20" height="10" as="geometry" />
        </mxCell>
        <mxCell id="0nwCaB0LVHe2-dGo3pXc-24" value="" style="endArrow=none;html=1;exitX=0.75;exitY=0;exitDx=0;exitDy=0;entryX=0.5;entryY=1;entryDx=0;entryDy=0;" edge="1" parent="1" source="0nwCaB0LVHe2-dGo3pXc-22" target="0nwCaB0LVHe2-dGo3pXc-21">
          <mxGeometry width="50" height="50" relative="1" as="geometry">
            <mxPoint x="666" y="350" as="sourcePoint" />
            <mxPoint x="716" y="300" as="targetPoint" />
          </mxGeometry>
        </mxCell>
        <mxCell id="0nwCaB0LVHe2-dGo3pXc-25" value="&lt;font style=&quot;font-size: 8px&quot;&gt;service-A = overload-response&amp;gt;10&lt;br&gt;service-B = 100API/min&lt;br&gt;service-C = 10API/min&lt;br&gt;&lt;/font&gt;" style="html=1;aspect=fixed;strokeColor=none;shadow=0;align=center;verticalAlign=top;fillColor=#3B8DF1;shape=mxgraph.gcp2.speed" vertex="1" parent="1">
          <mxGeometry x="450" y="180" width="40" height="22.8" as="geometry" />
        </mxCell>
        <mxCell id="0nwCaB0LVHe2-dGo3pXc-26" value="&lt;font style=&quot;font-size: 8px&quot;&gt;service-A = overload response &amp;gt; 10&lt;/font&gt;" style="html=1;aspect=fixed;strokeColor=none;shadow=0;align=center;verticalAlign=top;fillColor=#3B8DF1;shape=mxgraph.gcp2.speed" vertex="1" parent="1">
          <mxGeometry x="176" y="440" width="40" height="22.8" as="geometry" />
        </mxCell>
        <mxCell id="0nwCaB0LVHe2-dGo3pXc-27" value="&lt;font style=&quot;font-size: 8px&quot;&gt;service-B = 100 API/minute&lt;/font&gt;" style="html=1;aspect=fixed;strokeColor=none;shadow=0;align=center;verticalAlign=top;fillColor=#3B8DF1;shape=mxgraph.gcp2.speed" vertex="1" parent="1">
          <mxGeometry x="306" y="440" width="40" height="22.8" as="geometry" />
        </mxCell>
        <mxCell id="0nwCaB0LVHe2-dGo3pXc-28" value="&lt;font style=&quot;font-size: 8px&quot;&gt;service-C = 10 API/minute&lt;/font&gt;" style="html=1;aspect=fixed;strokeColor=none;shadow=0;align=center;verticalAlign=top;fillColor=#3B8DF1;shape=mxgraph.gcp2.speed" vertex="1" parent="1">
          <mxGeometry x="426" y="440" width="40" height="22.8" as="geometry" />
        </mxCell>
        <mxCell id="0nwCaB0LVHe2-dGo3pXc-29" value="" style="endArrow=none;html=1;entryX=0.5;entryY=1;entryDx=0;entryDy=0;exitX=0.5;exitY=0;exitDx=0;exitDy=0;" edge="1" parent="1" source="0nwCaB0LVHe2-dGo3pXc-13" target="0nwCaB0LVHe2-dGo3pXc-1">
          <mxGeometry width="50" height="50" relative="1" as="geometry">
            <mxPoint x="380" y="370" as="sourcePoint" />
            <mxPoint x="430" y="320" as="targetPoint" />
          </mxGeometry>
        </mxCell>
        <mxCell id="0nwCaB0LVHe2-dGo3pXc-30" value="" style="endArrow=none;html=1;entryX=0.5;entryY=1;entryDx=0;entryDy=0;exitX=0.5;exitY=0;exitDx=0;exitDy=0;" edge="1" parent="1" source="0nwCaB0LVHe2-dGo3pXc-17" target="0nwCaB0LVHe2-dGo3pXc-1">
          <mxGeometry width="50" height="50" relative="1" as="geometry">
            <mxPoint x="215" y="360" as="sourcePoint" />
            <mxPoint x="370" y="270" as="targetPoint" />
          </mxGeometry>
        </mxCell>
        <mxCell id="0nwCaB0LVHe2-dGo3pXc-31" value="" style="endArrow=none;html=1;exitX=0.5;exitY=0;exitDx=0;exitDy=0;" edge="1" parent="1" source="0nwCaB0LVHe2-dGo3pXc-21">
          <mxGeometry width="50" height="50" relative="1" as="geometry">
            <mxPoint x="225" y="370" as="sourcePoint" />
            <mxPoint x="360" y="260" as="targetPoint" />
          </mxGeometry>
        </mxCell>
        <mxCell id="0nwCaB0LVHe2-dGo3pXc-32" value="" style="endArrow=classic;html=1;exitX=1;exitY=0.5;exitDx=0;exitDy=0;entryX=0;entryY=0.5;entryDx=0;entryDy=0;" edge="1" parent="1" source="0nwCaB0LVHe2-dGo3pXc-14" target="0nwCaB0LVHe2-dGo3pXc-18">
          <mxGeometry width="50" height="50" relative="1" as="geometry">
            <mxPoint x="200" y="440" as="sourcePoint" />
            <mxPoint x="250" y="390" as="targetPoint" />
          </mxGeometry>
        </mxCell>
        <mxCell id="0nwCaB0LVHe2-dGo3pXc-33" value="" style="endArrow=classic;html=1;exitX=1;exitY=0.5;exitDx=0;exitDy=0;entryX=0;entryY=0.5;entryDx=0;entryDy=0;" edge="1" parent="1" source="0nwCaB0LVHe2-dGo3pXc-18" target="0nwCaB0LVHe2-dGo3pXc-22">
          <mxGeometry width="50" height="50" relative="1" as="geometry">
            <mxPoint x="200" y="440" as="sourcePoint" />
            <mxPoint x="250" y="390" as="targetPoint" />
          </mxGeometry>
        </mxCell>
        <mxCell id="0nwCaB0LVHe2-dGo3pXc-36" value="&lt;font style=&quot;font-size: 10px&quot;&gt;service-C&lt;br&gt;overloaded&lt;/font&gt;" style="shape=mxgraph.signs.nature.sun_2;html=1;pointerEvents=1;verticalLabelPosition=bottom;verticalAlign=top;align=center;fillColor=#0000FF;dashed=1;dashPattern=1 1;strokeColor=#FF0000;" vertex="1" parent="1">
          <mxGeometry x="450" y="460" width="75.5" height="80" as="geometry" />
        </mxCell>
        <mxCell id="0nwCaB0LVHe2-dGo3pXc-37" value="" style="endArrow=classic;html=1;strokeColor=#0000FF;dashed=1;" edge="1" parent="1">
          <mxGeometry width="50" height="50" relative="1" as="geometry">
            <mxPoint x="450" y="496" as="sourcePoint" />
            <mxPoint x="400" y="496" as="targetPoint" />
          </mxGeometry>
        </mxCell>
        <mxCell id="0nwCaB0LVHe2-dGo3pXc-38" value="" style="endArrow=classic;html=1;strokeColor=#0000FF;dashed=1;" edge="1" parent="1">
          <mxGeometry width="50" height="50" relative="1" as="geometry">
            <mxPoint x="316" y="496" as="sourcePoint" />
            <mxPoint x="266" y="496" as="targetPoint" />
          </mxGeometry>
        </mxCell>
        <mxCell id="0nwCaB0LVHe2-dGo3pXc-43" value="&lt;font color=&quot;#0000ff&quot;&gt;response&lt;br&gt;(throttled)&lt;/font&gt;" style="text;html=1;strokeColor=none;fillColor=none;align=center;verticalAlign=middle;whiteSpace=wrap;rounded=0;dashed=1;dashPattern=1 1;" vertex="1" parent="1">
          <mxGeometry x="341" y="480" width="40" height="20" as="geometry" />
        </mxCell>
        <mxCell id="0nwCaB0LVHe2-dGo3pXc-46" value="&lt;font color=&quot;#0000ff&quot;&gt;Apply throttling&lt;br&gt;&lt;/font&gt;" style="text;html=1;strokeColor=none;fillColor=none;align=center;verticalAlign=middle;whiteSpace=wrap;rounded=0;dashed=1;dashPattern=1 1;" vertex="1" parent="1">
          <mxGeometry x="194" y="485" width="40" height="20" as="geometry" />
        </mxCell>
        <mxCell id="0nwCaB0LVHe2-dGo3pXc-50" value="" style="shape=hexagon;perimeter=hexagonPerimeter2;whiteSpace=wrap;html=1;fixedSize=1;dashed=1;dashPattern=1 1;fontColor=#ffffff;fillColor=none;strokeColor=#0000FF;strokeWidth=3;" vertex="1" parent="1">
          <mxGeometry x="176" y="475" width="76" height="50" as="geometry" />
        </mxCell>
      </root>
    </mxGraphModel>
  </diagram>
</mxfile>
